<svg xmlns="http://www.w3.org/2000/svg" width="91" height="92" viewBox="0 0 91 92" fill="none"><path d="M6.69998 28.1298C6.5396 28.4716 6.29955 28.7699 5.99998 28.9998C5.70447 29.2311 5.36384 29.398 4.99998 29.4898C4.64657 29.5935 4.27636 29.6274 3.90998 29.5898C3.52417 29.5584 3.14934 29.446 2.80998 29.2598C2.46713 29.0832 2.16155 28.8421 1.90998 28.5498C1.66791 28.2539 1.48462 27.9145 1.36998 27.5498C1.25048 27.2064 1.19952 26.8428 1.21998 26.4798C1.24908 26.1292 1.35127 25.7885 1.51998 25.4798C1.68148 25.1499 1.91775 24.8623 2.20998 24.6398C2.50611 24.4095 2.84652 24.2427 3.20998 24.1498C3.5669 24.0465 3.94029 24.0126 4.30998 24.0498C4.69556 24.0823 5.07016 24.1947 5.40998 24.3798C5.75101 24.5592 6.05609 24.7999 6.30998 25.0898C6.55205 25.3857 6.73534 25.7251 6.84998 26.0898C6.96014 26.4078 7.01099 26.7434 6.99998 27.0798C6.97793 27.4475 6.87552 27.8059 6.69998 28.1298V28.1298ZM5.83998 27.6798C5.94037 27.4668 5.99488 27.2352 5.99998 26.9998C6.01247 26.7622 5.9785 26.5244 5.89998 26.2998C5.81638 26.0688 5.69095 25.8553 5.52998 25.6698C5.38307 25.4852 5.20341 25.3292 4.99998 25.2098C4.76003 25.0888 4.49815 25.0173 4.22998 24.9998C3.98831 24.979 3.74488 24.9993 3.50998 25.0598C3.2784 25.116 3.06144 25.2209 2.87351 25.3675C2.68558 25.514 2.53098 25.6989 2.41998 25.9098C2.3084 26.1237 2.24363 26.3589 2.22998 26.5998C2.21343 27.0853 2.38545 27.5583 2.70998 27.9198C2.87505 28.1124 3.07528 28.272 3.29998 28.3898C3.52858 28.5052 3.77566 28.5797 4.02998 28.6098C4.27161 28.6355 4.51594 28.6152 4.74998 28.5498C4.98093 28.496 5.19646 28.3899 5.37998 28.2398C5.57388 28.0905 5.7312 27.899 5.83998 27.6798Z" fill="#2E524A"></path><path d="M10.1999 22.56C9.98545 22.8587 9.70919 23.1077 9.3899 23.29C9.08135 23.4643 8.7416 23.5764 8.3899 23.62C8.0221 23.6662 7.64887 23.6425 7.2899 23.55C6.54035 23.3451 5.89464 22.8671 5.4799 22.21C5.28685 21.9048 5.15443 21.5653 5.0899 21.21C5.01984 20.8568 5.01984 20.4932 5.0899 20.14C5.17992 19.7474 5.35695 19.3801 5.60792 19.0651C5.85888 18.7501 6.17737 18.4955 6.5399 18.32C6.91719 18.1226 7.33429 18.0132 7.7599 18L7.6199 19C7.36569 19.0098 7.11664 19.0747 6.8899 19.19C6.66229 19.3078 6.46407 19.4753 6.3099 19.68C6.17116 19.8753 6.07259 20.0963 6.0199 20.33C5.96746 20.5496 5.96065 20.7777 5.9999 21C6.04953 21.2376 6.14095 21.4644 6.2699 21.67C6.40562 21.8884 6.58218 22.0785 6.7899 22.23C6.99174 22.3851 7.22313 22.4974 7.4699 22.56C7.70501 22.6192 7.94823 22.6395 8.1899 22.62C8.42729 22.5912 8.65761 22.5201 8.8699 22.41C9.07769 22.3096 9.26437 22.1705 9.4199 22C9.57099 21.7894 9.67034 21.5462 9.7099 21.29C9.7649 21.0464 9.7649 20.7936 9.7099 20.55L10.6099 20.13C10.7422 20.5361 10.7798 20.9671 10.7199 21.39C10.6493 21.818 10.4703 22.2208 10.1999 22.56V22.56Z" fill="#2E524A"></path><path d="M10.6701 13.3899L11.3601 12.6899L15.3601 16.6199L14.6801 17.3099L12.8901 15.5499L11.2601 17.2099L13.0001 18.9999L12.3201 19.6899L8.32007 15.7699L9.01007 15.0699L10.5101 16.5499L12.1401 14.8999L10.6701 13.3899Z" fill="#2E524A"></path><path d="M14.51 10.0599L15.41 9.37988L20.41 12.6099L19.59 13.2399L18.7 12.6599L16.8 14.1199L17.11 15.1199L16.29 15.7499L14.51 10.0599ZM16.51 13.1199L17.85 12.1199L15.78 10.7999L16.51 13.1199Z" fill="#2E524A"></path><path d="M24.5 4.08016L25.38 3.66016L27.77 8.73016L26.89 9.15016L25.81 6.87016L23.72 7.87016L24.79 10.1402L23.9 10.5602L21.52 5.48016L22.4 5.07016L23.3 7.00016L25.4 6.00016L24.5 4.08016Z" fill="#2E524A"></path><path d="M31.7499 7.49989C31.3974 7.60869 31.0255 7.6394 30.6599 7.58989C30.3078 7.53607 29.9687 7.4174 29.6599 7.23989C29.3403 7.05032 29.0561 6.8067 28.8199 6.51989C28.5865 6.22138 28.4102 5.88237 28.2999 5.51989C28.187 5.15114 28.1463 4.76407 28.1799 4.37989C28.2204 4.01114 28.3253 3.65237 28.4899 3.31989C28.6552 2.99526 28.8828 2.70641 29.1599 2.46989C29.4519 2.22659 29.793 2.04922 30.1599 1.94989C30.5124 1.8411 30.8843 1.81038 31.2499 1.85989C31.6024 1.9121 31.9418 2.03087 32.2499 2.20989C32.5695 2.39947 32.8537 2.64309 33.0899 2.92989C33.3233 3.2284 33.4995 3.56741 33.6099 3.92989C33.7194 4.2993 33.7568 4.68636 33.7199 5.06989C33.6876 5.43897 33.5858 5.79862 33.4199 6.12989C33.2546 6.45453 33.0269 6.74337 32.7499 6.97989C32.4579 7.22319 32.1168 7.40057 31.7499 7.49989V7.49989ZM31.4699 6.55989C31.6997 6.49518 31.9118 6.3789 32.0899 6.21989C32.2684 6.06308 32.4145 5.87284 32.5199 5.65989C32.6283 5.4412 32.6929 5.20339 32.7099 4.95989C32.7328 4.70706 32.7056 4.4522 32.6299 4.20989C32.5595 3.96418 32.4442 3.73363 32.2899 3.52989C32.1334 3.34151 31.9477 3.17945 31.7399 3.04989C31.5385 2.92781 31.3136 2.84944 31.0799 2.81989C30.8459 2.78173 30.6061 2.79885 30.3799 2.86989C30.1491 2.9322 29.9365 3.04877 29.7599 3.20989C29.5845 3.36958 29.4389 3.5592 29.3299 3.76989C29.2228 3.98973 29.1551 4.22666 29.1299 4.46989C29.1119 4.72266 29.139 4.9766 29.2099 5.21989C29.2817 5.46696 29.4006 5.69785 29.5599 5.89989C29.7074 6.09313 29.8907 6.25611 30.0999 6.37989C30.3071 6.49931 30.534 6.58059 30.7699 6.61989C31.0049 6.64945 31.2434 6.629 31.4699 6.55989Z" fill="#2E524A"></path><path d="M38 6.16973C37.5789 6.23668 37.1475 6.17753 36.76 5.99973C36.3989 5.82864 36.0912 5.56245 35.87 5.22973C35.6285 4.87858 35.4773 4.47327 35.43 4.04973L35 0.819727L36 0.689727L36.43 3.91973C36.4629 4.17123 36.5481 4.41307 36.68 4.62973C36.8023 4.82773 36.9748 4.98988 37.18 5.09973C37.4006 5.2059 37.6487 5.24084 37.89 5.19973C38.1309 5.17772 38.3585 5.07966 38.54 4.91973C38.7125 4.76206 38.8343 4.55671 38.89 4.32973C38.9462 4.08288 38.9462 3.82657 38.89 3.57973L38.47 0.349727L39.47 0.219727L39.91 3.44973C39.9636 3.78091 39.9636 4.11855 39.91 4.44973C39.8414 4.74428 39.723 5.02497 39.56 5.27973C39.381 5.53321 39.1485 5.7443 38.8789 5.89809C38.6094 6.05187 38.3093 6.1446 38 6.16973V6.16973Z" fill="#2E524A"></path><path d="M43.7399 5.79996C43.4367 5.79317 43.1365 5.73918 42.8499 5.63996C42.5791 5.54293 42.3283 5.3972 42.1099 5.20996C41.9048 5.02905 41.7498 4.79828 41.6599 4.53996L42.5799 4.21996C42.6246 4.34084 42.7048 4.4454 42.8099 4.51996C42.9338 4.61489 43.0723 4.68918 43.2199 4.73996C43.3917 4.79235 43.5703 4.81931 43.7499 4.81996C43.9367 4.83005 44.1237 4.80285 44.2999 4.73996C44.4563 4.69275 44.5999 4.61069 44.7199 4.49996C44.8172 4.39666 44.874 4.26175 44.8799 4.11996C44.8823 4.05175 44.8691 3.98389 44.8414 3.92152C44.8137 3.85915 44.7721 3.8039 44.7199 3.75996C44.5973 3.65273 44.4545 3.57112 44.2999 3.51996C44.1294 3.46608 43.9557 3.42266 43.7799 3.38996C43.4135 3.32854 43.0548 3.22797 42.7099 3.08996C42.4308 2.96919 42.1866 2.78003 41.9999 2.53996C41.8108 2.28716 41.7186 1.97495 41.7399 1.65996C41.722 1.34536 41.8139 1.03432 41.9999 0.77996C42.208 0.51655 42.4849 0.315818 42.7999 0.19996C43.1148 0.0615173 43.456 -0.00672911 43.7999 -4.00372e-05C44.103 0.00801913 44.403 0.0619651 44.6899 0.15996C44.9626 0.252989 45.2141 0.399139 45.4299 0.58996C45.635 0.770872 45.79 1.00164 45.8799 1.25996L44.9999 1.57996C44.9552 1.45908 44.875 1.35452 44.7699 1.27996C44.6478 1.18456 44.5087 1.11329 44.3599 1.06996C44.1855 1.01494 44.0026 0.991246 43.8199 0.99996C43.6364 0.990671 43.4529 1.01786 43.2799 1.07996C43.1228 1.13042 42.9792 1.21591 42.8599 1.32996C42.808 1.37473 42.766 1.4299 42.7367 1.49192C42.7074 1.55393 42.6915 1.6214 42.6899 1.68996C42.6844 1.76503 42.6949 1.84043 42.7207 1.91112C42.7466 1.98182 42.7872 2.04619 42.8399 2.09996C42.9526 2.19823 43.0858 2.26999 43.2299 2.30996L43.7899 2.42996C44.1351 2.49035 44.4711 2.59452 44.7899 2.73996C45.0868 2.86367 45.348 3.0596 45.5499 3.30996C45.744 3.54906 45.8404 3.85271 45.8199 4.15996C45.8264 4.47943 45.7202 4.79098 45.5199 5.03996C45.3183 5.29726 45.0529 5.49724 44.7499 5.61996C44.4301 5.75175 44.0856 5.81314 43.7399 5.79996V5.79996Z" fill="#2E524A"></path><path d="M47.3601 5.82978L48.0901 0.279785L51.5701 0.739785L51.4401 1.73979L48.9301 1.39979L48.7801 2.49979L50.7801 2.75979L50.6501 3.75979L48.6501 3.49979L48.4501 4.99978L51.0001 5.31979L50.8701 6.31979L47.3601 5.82978Z" fill="#2E524A"></path><path d="M55.78 4.48975L58.22 5.25975L57.93 6.18975L55.49 5.41975L55.78 4.48975Z" fill="#2E524A"></path><path d="M61.15 9.68974C60.815 9.523 60.5187 9.28795 60.28 8.99974C60.041 8.72591 59.8606 8.40599 59.75 8.05974C59.6342 7.71889 59.5833 7.35934 59.6 6.99974C59.62 6.6118 59.7151 6.23142 59.88 5.87974C60.0435 5.54533 60.2712 5.24633 60.55 4.99974C60.8192 4.74508 61.135 4.54475 61.48 4.40974C61.8209 4.27738 62.1844 4.21284 62.55 4.21974C62.9168 4.22038 63.2788 4.30235 63.61 4.45974C63.9429 4.6167 64.2392 4.84151 64.48 5.11974C64.705 5.37934 64.8811 5.67746 65 5.99974C65.1121 6.35165 65.1595 6.72093 65.14 7.08974C65.1206 7.47455 65.0254 7.85175 64.86 8.19974C64.7037 8.55291 64.4755 8.86964 64.19 9.12974C63.9209 9.3844 63.6051 9.58473 63.26 9.71974C62.9226 9.85206 62.5624 9.91662 62.2 9.90974C61.8378 9.91763 61.4786 9.84236 61.15 9.68974V9.68974ZM61.56 8.80974C61.7762 8.91093 62.0113 8.96544 62.25 8.96974C62.4901 8.96772 62.7276 8.92021 62.95 8.82974C63.1743 8.73586 63.3807 8.60391 63.56 8.43974C63.7434 8.26171 63.8925 8.05157 64 7.81974C64.1154 7.593 64.1802 7.34394 64.19 7.08974C64.2103 6.84682 64.1831 6.60228 64.11 6.36974C64.0344 6.14452 63.9193 5.93457 63.77 5.74974C63.6159 5.56786 63.4245 5.42111 63.2089 5.31934C62.9933 5.21757 62.7584 5.16315 62.52 5.15974C62.2799 5.16176 62.0424 5.20926 61.82 5.29974C61.5957 5.39362 61.3894 5.52556 61.21 5.68974C60.8391 6.04959 60.6147 6.53411 60.58 7.04974C60.5705 7.29304 60.6009 7.53626 60.67 7.76974C60.7467 7.99144 60.8618 8.19792 61.01 8.37974C61.1592 8.56205 61.3471 8.70892 61.56 8.80974V8.80974Z" fill="#2E524A"></path><path d="M66.87 12.9998C66.5599 12.7903 66.2975 12.5177 66.1 12.1998C65.9094 11.8954 65.7835 11.555 65.73 11.1998C65.6603 10.8364 65.6603 10.4632 65.73 10.0998C65.8176 9.74 65.9738 9.40046 66.19 9.0998C66.4071 8.76597 66.6936 8.48288 67.03 8.2698C67.651 7.86756 68.4033 7.72067 69.13 7.8598C69.5087 7.91267 69.8717 8.04628 70.1943 8.25159C70.5169 8.45689 70.7917 8.7291 71 9.0498C71.211 9.44794 71.3274 9.88938 71.34 10.3398L70.34 10.2398C70.3259 9.97473 70.247 9.71718 70.11 9.4898C69.9769 9.28844 69.7989 9.12071 69.59 8.9998C69.4181 8.85712 69.2165 8.75462 69 8.6998C68.7693 8.64974 68.5306 8.64974 68.3 8.6998C68.06 8.75225 67.8325 8.85073 67.63 8.9898C67.41 9.13982 67.22 9.32977 67.07 9.5498C66.9293 9.75987 66.8276 9.99362 66.77 10.2398C66.7252 10.4811 66.7252 10.7285 66.77 10.9698C66.8017 11.2045 66.8836 11.4296 67.01 11.6298C67.1358 11.8323 67.3027 12.006 67.5 12.1398C67.6399 12.2297 67.7912 12.3003 67.95 12.3498C68.1093 12.3949 68.2746 12.4151 68.44 12.4098C68.6162 12.4076 68.7913 12.3807 68.96 12.3298C69.1341 12.2662 69.3015 12.1859 69.46 12.0898L68.61 11.5098L69.09 10.8098L70.81 11.9998C70.6022 12.3305 70.3302 12.6161 70.01 12.8398C69.7103 13.0554 69.3702 13.2085 69.01 13.2898C68.6505 13.3648 68.2795 13.3648 67.92 13.2898C67.5529 13.2715 67.1944 13.1725 66.87 12.9998V12.9998Z" fill="#2E524A"></path><path d="M75.05 12.1099L75.88 12.8699L73.6 18.3799L72.84 17.6799L73.24 16.6799L71.47 15.0599L70.54 15.5499L69.77 14.8499L75.05 12.1099ZM72.39 14.5999L73.64 15.7399L74.57 13.4699L72.39 14.5999Z" fill="#2E524A"></path><path d="M74.48 19.3501L78.82 15.8101L79.48 16.6301L78 20.8801L81 18.4601L81.62 19.2201L77.27 22.7501L76.61 21.9401L78.09 17.6801L75.09 20.1001L74.48 19.3501Z" fill="#2E524A"></path><path d="M78.27 24.3101L82.97 21.3101L83.5 22.1301L78.8 25.1801L78.27 24.3101Z" fill="#2E524A"></path><path d="M80.7901 28.8698C80.6195 28.5415 80.5239 28.1795 80.5101 27.8098C80.4931 27.4493 80.5475 27.0891 80.6701 26.7498C80.7975 26.4017 80.9873 26.0798 81.2301 25.7998C81.4882 25.5128 81.7966 25.2756 82.1401 25.0998C82.4866 24.9257 82.8636 24.8204 83.2501 24.7898C83.6171 24.7553 83.9874 24.7927 84.3401 24.8998C84.7054 24.9928 85.0465 25.1633 85.3401 25.3998C85.6253 25.6334 85.8601 25.9226 86.0301 26.2498C86.2243 26.6408 86.3204 27.0733 86.3101 27.5098C86.2964 27.9385 86.187 28.3587 85.9901 28.7398L85.1801 28.1698C85.2805 27.9395 85.3316 27.6909 85.3301 27.4398C85.331 27.179 85.2693 26.9218 85.1501 26.6898C85.0435 26.4777 84.8936 26.2904 84.7101 26.1398C84.5199 25.9979 84.3068 25.8897 84.0801 25.8198C83.7229 25.727 83.347 25.7349 82.994 25.8426C82.6411 25.9502 82.3248 26.1535 82.0801 26.4298C81.9187 26.613 81.7901 26.8227 81.7001 27.0498C81.6168 27.2701 81.5761 27.5042 81.5801 27.7398C81.59 27.98 81.6514 28.2153 81.7601 28.4298C81.8725 28.661 82.0409 28.8603 82.2501 29.0098C82.4532 29.1648 82.6893 29.2709 82.9401 29.3198V30.3198C82.5149 30.2595 82.1103 30.0984 81.7601 29.8498C81.3503 29.6218 81.0139 29.2819 80.7901 28.8698V28.8698Z" fill="#2E524A"></path><path d="M89.8 37.29L88.86 37.54L88.41 35.89L84 37.08L83.74 36.13L88.21 34.94L87.77 33.29L88.71 33.04L89.8 37.29Z" fill="#2E524A"></path><path d="M84.6299 40.1201L90.1799 39.3901L90.6399 42.8701L89.6399 43.0001L89.2999 40.4801L88.1799 40.6301L88.4399 42.6301L87.4399 42.7601L87.1799 40.7601L85.6599 40.9601L85.9899 43.4801L84.9899 43.6101L84.6299 40.1201Z" fill="#2E524A"></path><path d="M90.83 46.9199V48.0399L85.2 50.0399V49.0399L86.2 48.6999V46.2999L85.2 45.9199V44.9199L90.83 46.9199ZM87.2 46.5799V48.2699L89.52 47.4599L87.2 46.5799Z" fill="#2E524A"></path><path d="M84.2201 56.0002C84.2845 55.7043 84.3959 55.4207 84.5501 55.1602C84.6928 54.9092 84.883 54.6884 85.1101 54.5102C85.3267 54.3461 85.5812 54.2394 85.8501 54.2002L85.9901 55.2002C85.8661 55.2241 85.7516 55.2831 85.6601 55.3702C85.5402 55.4721 85.4387 55.5939 85.3601 55.7302C85.2779 55.8915 85.2173 56.063 85.1801 56.2402C85.1504 56.4223 85.1504 56.6081 85.1801 56.7902C85.2011 56.9498 85.2556 57.1032 85.3401 57.2402C85.3781 57.3007 85.4277 57.3531 85.4861 57.3943C85.5444 57.4355 85.6104 57.4647 85.6801 57.4802C85.7477 57.4963 85.818 57.4966 85.8857 57.4809C85.9533 57.4653 86.0165 57.4343 86.0701 57.3902C86.1934 57.2889 86.2982 57.1671 86.3801 57.0302C86.4708 56.8738 86.5478 56.7099 86.6101 56.5402C86.7353 56.1877 86.9032 55.8519 87.1101 55.5402C87.2796 55.2784 87.5138 55.0648 87.7901 54.9202C88.0742 54.7869 88.3954 54.7551 88.7001 54.8302C89.0147 54.893 89.2995 55.0582 89.5101 55.3002C89.7206 55.5544 89.8649 55.8567 89.9301 56.1802C89.9936 56.5105 89.9936 56.8499 89.9301 57.1802C89.8684 57.4737 89.7568 57.7545 89.6001 58.0102C89.4575 58.2612 89.2673 58.482 89.0401 58.6602C88.8206 58.8276 88.5628 58.9375 88.2901 58.9802L88.1601 57.9802C88.2841 57.9563 88.3987 57.8973 88.4901 57.8102C88.6096 57.7105 88.7081 57.5881 88.7801 57.4502C88.8716 57.292 88.9358 57.1196 88.9701 56.9402C89.0052 56.7619 89.0052 56.5785 88.9701 56.4002C88.9409 56.2568 88.8831 56.1208 88.8001 56.0002C88.7645 55.9407 88.7167 55.8894 88.6598 55.8498C88.6029 55.8101 88.5383 55.783 88.4701 55.7702C88.3984 55.7486 88.3228 55.7428 88.2486 55.7532C88.1743 55.7635 88.1032 55.7898 88.0401 55.8302C87.9251 55.9253 87.8329 56.0448 87.7701 56.1802C87.6901 56.3402 87.6201 56.5102 87.5401 56.7102C87.4201 57.0649 87.2519 57.4014 87.0401 57.7102C86.8583 57.9712 86.6188 58.1868 86.3401 58.3402C86.0664 58.483 85.7503 58.5221 85.4501 58.4502C85.1339 58.3919 84.8476 58.2258 84.6401 57.9802C84.4263 57.732 84.2815 57.432 84.2201 57.1102C84.1363 56.7449 84.1363 56.3654 84.2201 56.0002Z" fill="#2E524A"></path><path d="M87.3899 65.21L86.4699 64.88L86.9999 63.27L82.6399 61.73L82.9699 60.81L87.3299 62.35L87.8999 60.73L88.8199 61.06L87.3899 65.21Z" fill="#2E524A"></path><path d="M80.4101 66.59C80.5786 66.2618 80.8177 65.9749 81.1101 65.75C81.405 65.5177 81.7458 65.3507 82.1101 65.26C82.466 65.1512 82.8405 65.1172 83.2101 65.16C83.9788 65.2301 84.6929 65.5871 85.2101 66.16C85.4543 66.4561 85.6409 66.7952 85.7601 67.16C85.8711 67.5053 85.9185 67.8678 85.9001 68.23C85.87 68.5792 85.7715 68.919 85.6101 69.23C85.4416 69.5583 85.2026 69.8451 84.9101 70.07C84.614 70.3003 84.2736 70.4671 83.9101 70.56C83.5532 70.6633 83.1798 70.6972 82.8101 70.66C82.4296 70.6178 82.0601 70.506 81.7201 70.33C81.0417 69.9783 80.5231 69.381 80.2701 68.66C80.1506 68.3166 80.0997 67.9531 80.1201 67.59C80.1505 67.2409 80.249 66.9012 80.4101 66.59ZM81.2801 67.04C81.1639 67.2485 81.0988 67.4815 81.0901 67.72C81.0769 67.9585 81.1144 68.1971 81.2001 68.42C81.2807 68.6502 81.4027 68.8637 81.5601 69.05C81.7291 69.2401 81.9327 69.3962 82.1601 69.51C82.3809 69.6356 82.6268 69.7108 82.8801 69.73C83.1214 69.7748 83.3689 69.7748 83.6101 69.73C83.8363 69.6635 84.0494 69.5586 84.2401 69.42C84.4267 69.274 84.5801 69.0899 84.6901 68.88C84.8064 68.668 84.8715 68.4317 84.8801 68.19C84.8884 67.9518 84.8511 67.7142 84.7701 67.49C84.6884 67.2634 84.5665 67.0533 84.4101 66.87C84.0691 66.4812 83.5944 66.2349 83.0801 66.18C82.8386 66.1494 82.5933 66.1699 82.3601 66.24C82.1307 66.2981 81.9161 66.4037 81.7301 66.55C81.5493 66.6656 81.3957 66.8192 81.2801 67V67.04Z" fill="#2E524A"></path><path d="M78.36 70.3501L82.88 73.6501L81.62 75.3901C81.4478 75.6232 81.2165 75.8061 80.95 75.9201C80.6835 76.0262 80.3948 76.064 80.11 76.0301C79.8164 75.997 79.5369 75.8865 79.3 75.7101C79.1021 75.5719 78.938 75.3907 78.82 75.1801C78.7043 74.9874 78.6294 74.773 78.6 74.5501C78.5717 74.3257 78.5887 74.0978 78.65 73.8801L76 73.6001L76.66 72.6901L79.23 72.9601L79.6 72.4501L77.8 71.1401L78.36 70.3501ZM80.36 73.0301L79.74 73.8901C79.6605 73.9946 79.612 74.1193 79.6 74.2501C79.5887 74.383 79.6093 74.5167 79.66 74.6401C79.7172 74.7677 79.8069 74.878 79.92 74.9601C80.0289 75.0419 80.1576 75.0933 80.2928 75.1091C80.4281 75.1249 80.5652 75.1045 80.69 75.0501C80.8111 74.996 80.9149 74.9095 80.99 74.8001L81.62 73.9501L80.36 73.0301Z" fill="#2E524A"></path><path d="M75.08 74.6499L79.16 78.4899L76.76 81.0499L76.05 80.3799L77.78 78.5299L77 77.7499L75.62 79.2199L74.91 78.5499L76.29 77.0799L75.17 76.0799L73.43 77.9299L72.72 77.2599L75.08 74.6499Z" fill="#2E524A"></path><path d="M47.17 45C46.2686 46.094 45.2639 47.0986 44.17 48C39.92 51.55 34.72 53 30.3 51.88H30.22C27.95 47.6 28.22 42.17 30.81 37.23C31.4704 35.9853 32.2579 34.8124 33.16 33.73C33.55 33.26 33.95 32.81 34.37 32.38C35.664 31.0418 37.1302 29.8817 38.73 28.93C42.1021 26.7953 46.1713 26.0532 50.08 26.86H50.21C51.0969 28.6457 51.5752 30.6064 51.61 32.6C51.6514 34.6176 51.3435 36.6273 50.7 38.54C49.9195 40.8873 48.7239 43.0753 47.17 45V45Z" stroke="#2E524A" stroke-miterlimit="10"></path><path d="M47.17 44.9999C46.2687 46.0939 45.264 47.0985 44.17 47.9999C39.92 51.5499 34.72 52.9999 30.3 51.8799V51.8199C28.03 47.5399 28.3 42.1099 30.89 37.1699C31.5505 35.9253 32.338 34.7523 33.2401 33.6699C33.6301 33.1999 34.0301 32.7499 34.4501 32.3199C35.7441 30.9818 37.2102 29.8216 38.8101 28.8699C42.1822 26.7353 46.2514 25.9931 50.16 26.7999H50.2901C51.177 28.5856 51.6553 30.5464 51.69 32.5399C51.7315 34.5576 51.4236 36.5672 50.78 38.4799C49.9819 40.8541 48.7587 43.0634 47.17 44.9999V44.9999Z" stroke="#2E524A" stroke-miterlimit="10"></path><path d="M28.6699 54.1198L28.7099 54.0698L32.7699 48.9198L37.3699 43.0798L41.4599 37.8998L45.6099 32.6298L50.1699 26.8398" stroke="#2E524A" stroke-miterlimit="10"></path><path d="M45.8201 46.48L35.8601 44.79" stroke="#2E524A" stroke-miterlimit="10"></path><path d="M31.8999 35.2798L35.8599 44.7898" stroke="#2E524A" stroke-miterlimit="10"></path><path d="M50.2201 39.1601L41.5601 37.6201" stroke="#2E524A" stroke-miterlimit="10"></path><path d="M38.25 29.52L41.56 37.62" stroke="#2E524A" stroke-miterlimit="10"></path><path d="M30.22 51.8699C30.22 51.8699 50.22 62.1499 59.91 40.4799C59.91 40.4799 58.5 39.2199 49.91 40.4799" stroke="#2E524A" stroke-miterlimit="10"></path><path d="M25.0601 69.9998V65.7998H27.6901V66.5298H25.7901V67.3798H27.3001V68.1198H25.7901V69.2698H27.6901V69.9998H25.0601Z" fill="#2E524A"></path><path d="M30.4699 70.0002C30.2421 70.0003 30.0157 69.9631 29.7999 69.8902C29.5929 69.824 29.4021 69.7149 29.2399 69.5702C29.0814 69.4412 28.9605 69.2719 28.8899 69.0802L29.5799 68.8302C29.6175 68.9164 29.6759 68.992 29.7499 69.0502C29.848 69.1192 29.9558 69.1731 30.0699 69.2102C30.1991 69.2518 30.3342 69.272 30.4699 69.2702C30.6061 69.2681 30.7411 69.2445 30.8699 69.2002C30.9856 69.1597 31.0913 69.0949 31.1799 69.0102C31.2177 68.9739 31.2477 68.9305 31.2684 68.8824C31.289 68.8343 31.2997 68.7825 31.2999 68.7302C31.3015 68.6791 31.2915 68.6282 31.2708 68.5815C31.25 68.5347 31.2189 68.4933 31.1799 68.4602C31.0872 68.3804 30.9779 68.3223 30.8599 68.2902C30.7339 68.2428 30.6031 68.2093 30.4699 68.1902C30.1938 68.1464 29.9225 68.0761 29.6599 67.9802C29.4454 67.896 29.2561 67.7583 29.1099 67.5802C28.9805 67.4138 28.907 67.2108 28.8999 67.0002C28.8894 66.7575 28.9676 66.5194 29.1199 66.3302C29.2679 66.136 29.4645 65.9842 29.6899 65.8902C29.9352 65.7809 30.2014 65.7263 30.4699 65.7302C30.6947 65.7269 30.9183 65.7641 31.1299 65.8402C31.3363 65.9029 31.5272 66.0085 31.6899 66.1502C31.8498 66.2819 31.9708 66.4548 32.0399 66.6502L31.3499 66.9002C31.3157 66.812 31.2566 66.7356 31.1799 66.6802C31.0837 66.608 30.9753 66.5538 30.8599 66.5202C30.734 66.4793 30.6023 66.4591 30.4699 66.4602C30.33 66.4572 30.1909 66.481 30.0599 66.5302C29.9458 66.574 29.8407 66.6384 29.7499 66.7202C29.7117 66.7561 29.6813 66.7994 29.6606 66.8476C29.64 66.8958 29.6295 66.9478 29.6299 67.0002C29.6272 67.055 29.6356 67.1098 29.6545 67.1613C29.6734 67.2129 29.7024 67.2601 29.7399 67.3002C29.8289 67.3756 29.9355 67.4272 30.0499 67.4502C30.1881 67.4854 30.3284 67.5121 30.4699 67.5302C30.7354 67.5734 30.9942 67.6507 31.2399 67.7602C31.4606 67.8481 31.6564 67.9889 31.8099 68.1702C31.9554 68.3515 32.0332 68.5778 32.0299 68.8102C32.0379 69.0494 31.9599 69.2836 31.8099 69.4702C31.6646 69.6694 31.4674 69.8251 31.2399 69.9202C30.9921 70.0024 30.7293 70.0297 30.4699 70.0002V70.0002Z" fill="#2E524A"></path><path d="M36.35 65.7598V66.4898H35.0601V69.9998H34.3301V66.4898H33.05V65.7598H36.35Z" fill="#2E524A"></path><path d="M37.55 70V65.8H38.94C39.2182 65.7964 39.4941 65.8509 39.75 65.96C40.0025 66.0658 40.2306 66.2224 40.42 66.42C40.6156 66.6091 40.7689 66.8374 40.87 67.09C40.9826 67.3452 41.0405 67.6211 41.0401 67.9C41.0396 68.182 40.9817 68.461 40.87 68.72C40.766 68.968 40.6129 69.1925 40.42 69.38C40.2306 69.5775 40.0025 69.7341 39.75 69.84C39.4941 69.9491 39.2182 70.0036 38.94 70H37.55ZM38.28 69.27H38.94C39.1191 69.2692 39.2961 69.2318 39.46 69.16C39.6231 69.0908 39.7722 68.9925 39.9001 68.87C40.0959 68.6796 40.2294 68.4344 40.283 68.1666C40.3366 67.8987 40.3076 67.621 40.2001 67.37C40.1285 67.2058 40.0267 67.0566 39.9001 66.93C39.774 66.8098 39.6287 66.7118 39.4701 66.64C39.3025 66.5682 39.1223 66.5308 38.94 66.53H38.28V69.27Z" fill="#2E524A"></path><path d="M44.22 67.79H46.14V68.53H44.22V67.79Z" fill="#2E524A"></path><path d="M49.3799 69.9999V69.3499L49.8399 68.9799C50.0199 68.8399 50.1999 68.6799 50.3899 68.5099C50.5799 68.3399 50.7499 68.1699 50.9099 67.9999C51.0529 67.8509 51.1833 67.6903 51.2999 67.5199C51.3852 67.4026 51.4371 67.2643 51.4499 67.1199C51.4509 67.0037 51.4197 66.8895 51.3599 66.7899C51.3044 66.686 51.2213 66.5995 51.1199 66.5399C51.0214 66.4774 50.9064 66.446 50.7899 66.4499C50.6737 66.4489 50.5595 66.48 50.4599 66.5399C50.3584 66.5995 50.2754 66.686 50.2199 66.7899C50.16 66.8895 50.1289 67.0037 50.1299 67.1199H49.3999C49.3953 66.87 49.4611 66.624 49.5899 66.4099C49.7152 66.203 49.8906 66.0311 50.0999 65.9099C50.3071 65.7822 50.5465 65.7163 50.7899 65.7199C51.036 65.7196 51.2777 65.7852 51.4899 65.9099C51.6999 66.0345 51.8752 66.2099 51.9999 66.4199C52.1245 66.6321 52.1901 66.8738 52.1899 67.1199C52.1876 67.2602 52.1605 67.399 52.1099 67.5299C52.0561 67.6774 51.9857 67.8183 51.8999 67.9499C51.8028 68.0969 51.6959 68.2373 51.5799 68.3699C51.4549 68.5239 51.3213 68.6708 51.1799 68.8099L50.7199 69.2699H52.2099V69.9999H49.3799Z" fill="#2E524A"></path><path d="M54.83 70.0002C54.5989 70.0023 54.3713 69.9437 54.17 69.8302C53.9631 69.7153 53.7852 69.5545 53.65 69.3602C53.4974 69.1517 53.3823 68.9182 53.31 68.6702C53.2328 68.3936 53.1958 68.1073 53.2 67.8202C53.1945 67.5363 53.2315 67.2531 53.31 66.9802C53.3802 66.7283 53.4954 66.4911 53.65 66.2802C53.7879 66.0883 53.9652 65.9281 54.17 65.8102C54.3713 65.6967 54.5989 65.6381 54.83 65.6402C55.0641 65.6395 55.2945 65.698 55.5 65.8102C55.7017 65.9285 55.8757 66.0888 56.01 66.2802C56.1612 66.4918 56.273 66.7289 56.34 66.9802C56.4218 67.2526 56.4623 67.5358 56.46 67.8202C56.461 68.1078 56.4205 68.3941 56.34 68.6702C56.2709 68.9176 56.1593 69.1511 56.01 69.3602C55.8785 69.5541 55.7039 69.7149 55.5 69.8302C55.2945 69.9424 55.0641 70.0008 54.83 70.0002V70.0002ZM54.83 69.2702C54.9281 69.2737 55.0258 69.2569 55.117 69.2207C55.2082 69.1846 55.291 69.1299 55.36 69.0602C55.5107 68.9158 55.6181 68.7323 55.67 68.5302C55.7428 68.3006 55.7799 68.0611 55.78 67.8202C55.7815 67.5726 55.7444 67.3263 55.67 67.0902C55.6108 66.8918 55.5004 66.7124 55.35 66.5702C55.2236 66.456 55.0632 66.3864 54.8935 66.372C54.7237 66.3575 54.5539 66.399 54.41 66.4902C54.2864 66.5762 54.1839 66.689 54.11 66.8202C54.0338 66.9656 53.9767 67.1202 53.94 67.2802C53.8412 67.7075 53.862 68.1538 54 68.5702C54.0556 68.7708 54.1625 68.9534 54.31 69.1002C54.3782 69.1682 54.4594 69.2218 54.5487 69.2579C54.638 69.294 54.7337 69.3118 54.83 69.3102V69.2702Z" fill="#2E524A"></path><path d="M58 69.9998V66.4898H57.47L57.67 65.7598H58.73V69.9998H58Z" fill="#2E524A"></path><path d="M61.47 69.9998C61.2129 70.0014 60.9604 69.9322 60.74 69.7998C60.5246 69.6744 60.3454 69.4952 60.22 69.2798C60.0926 69.0743 60.0171 68.8409 60 68.5998H60.74C60.7389 68.7255 60.7699 68.8494 60.83 68.9598C60.8959 69.0623 60.985 69.1479 61.09 69.2098C61.196 69.2729 61.3166 69.3074 61.44 69.3098C61.5633 69.3094 61.6844 69.277 61.7914 69.2156C61.8983 69.1542 61.9875 69.0661 62.05 68.9598C62.1178 68.8521 62.1526 68.727 62.15 68.5998C62.1497 68.4754 62.1224 68.3526 62.07 68.2398C62.0061 68.1295 61.9126 68.0394 61.8 67.9798C61.6463 67.9099 61.4788 67.8757 61.31 67.8798H60.26L60.71 65.7598H62.77V66.4898H61.3L61.16 67.1498H61.46C61.7233 67.149 61.9821 67.218 62.21 67.3498C62.4254 67.4752 62.6046 67.6543 62.73 67.8698C62.8523 68.0897 62.9144 68.3381 62.91 68.5898C62.9093 68.7817 62.8719 68.9718 62.8 69.1498C62.7252 69.3205 62.6202 69.4763 62.49 69.6098C62.3574 69.741 62.2014 69.8461 62.03 69.9198C61.8503 69.9824 61.6601 70.0096 61.47 69.9998V69.9998Z" fill="#2E524A"></path><path d="M68.8 83.22C62.2095 87.6632 54.5344 90.2297 46.5968 90.6446C38.6593 91.0595 30.7584 89.3072 23.7406 85.5753C16.7228 81.8434 10.8524 76.2726 6.75842 69.4597C2.66442 62.6468 0.501034 54.8484 0.500001 46.9C0.499392 43.4102 0.91227 39.9327 1.73 36.54" stroke="#2E524A" stroke-miterlimit="10"></path></svg>